# xmcd CD database file
#
# Track frame offsets:
#	150
#	21102
#	40071
#	58276
#	78693
#	96938
#	115698
#	134291
#	152537
#	169334
#	186107
#	204769
#	223115
#
# Disc length: 3116 seconds
#
# Revision: 51
# Processed by: cddbd v1.5.2PL0 Copyright (c) Steve Scherf et al.
# Submitted via: CDex 1.51
#
DISCID=b00c2a0d
DTITLE=Eros Ramazzotti - 9
DYEAR=2003
DGENRE=Pop
TTITLE0=Un Segundo De Paz
TTITLE1=Solo Ayer
TTITLE2=Una Emoción Para Siempre
TTITLE3=Revivirte Otra Vez
TTITLE4=La Noche Son Tus Ojos
TTITLE5=Un Ancla En El Viento
TTITLE6=Piedra Pequeña
TTITLE7=Mamará, Una Gran Mujer
TTITLE8=El Hombre Que Miraba Las Nubes
TTITLE9=Canción Para Ella
TTITLE10=No Te Prometo Nada
TTITLE11=Falsa Salida
TTITLE12=Hay Una Melodía
EXTD=YEAR: 2003
EXTT0=
EXTT1=
EXTT2=
EXTT3=
EXTT4=
EXTT5=
EXTT6=
EXTT7=
EXTT8=
EXTT9=
EXTT10=
EXTT11=
EXTT12=
PLAYORDER=
